HIERARCHY
ROOT joint_Root
{
	OFFSET 0.0 0.0 0.0
	CHANNELS 6 Xposition Yposition Zposition Zrotation Xrotation Yrotation 
	JOINT Hips
	{
		OFFSET -0.726466 93.3139 -2.00062
		CHANNELS 6 Xposition Yposition Zposition Zrotation Xrotation Yrotation 
		JOINT Spine
		{
			OFFSET 15.7357 0.0 0.0
			CHANNELS 6 Xposition Yposition Zposition Zrotation Xrotation Yrotation 
			JOINT Chest
			{
				OFFSET 8.98455 -0.406207 0.0
				CHANNELS 6 Xposition Yposition Zposition Zrotation Xrotation Yrotation 
				JOINT Neck
				{
					OFFSET 16.3773 0.0 0.0
					CHANNELS 6 Xposition Yposition Zposition Zrotation Xrotation Yrotation 
					JOINT Head
					{
						OFFSET 6.45672 0.0 0.0
						CHANNELS 6 Xposition Yposition Zposition Zrotation Xrotation Yrotation 
						End Site
						{
							OFFSET 0.0 0.0 0.0
						}
					}
				}
				JOINT Shoulder_L
				{
					OFFSET 12.9942 -0.242716 4.98039
					CHANNELS 6 Xposition Yposition Zposition Zrotation Xrotation Yrotation 
					JOINT UpperArm_L
					{
						OFFSET 5.34809 0.0 0.0
						CHANNELS 6 Xposition Yposition Zposition Zrotation Xrotation Yrotation 
						JOINT LowerArm_L
						{
							OFFSET 24.3286 1.87007e-05 0.0
							CHANNELS 6 Xposition Yposition Zposition Zrotation Xrotation Yrotation 
							JOINT Hand_L
							{
								OFFSET 22.2916 0.0 0.0
								CHANNELS 6 Xposition Yposition Zposition Zrotation Xrotation Yrotation 
								End Site
								{
									OFFSET 0.0 0.0 0.0
								}
							}
						}
					}
				}
				JOINT Shoulder_R
				{
					OFFSET 12.9945 -0.242716 -4.98039
					CHANNELS 6 Xposition Yposition Zposition Zrotation Xrotation Yrotation 
					JOINT UpperArm_R
					{
						OFFSET -5.34813 0.0 0.0
						CHANNELS 6 Xposition Yposition Zposition Zrotation Xrotation Yrotation 
						JOINT LowerArm_R
						{
							OFFSET -24.3289 0.000322201 0.0
							CHANNELS 6 Xposition Yposition Zposition Zrotation Xrotation Yrotation 
							JOINT Hand_R
							{
								OFFSET -22.2915 -0.000108084 0.0
								CHANNELS 6 Xposition Yposition Zposition Zrotation Xrotation Yrotation 
								End Site
								{
									OFFSET 0.0 0.0 0.0
								}
							}
						}
					}
				}
			}
		}
		JOINT UpperLeg_L
		{
			OFFSET -2.19248 -6.46944 0.0
			CHANNELS 6 Xposition Yposition Zposition Zrotation Xrotation Yrotation 
			JOINT LowerLeg_L
			{
				OFFSET 39.0811 0.0 -1.23785e-05
				CHANNELS 6 Xposition Yposition Zposition Zrotation Xrotation Yrotation 
				JOINT Foot_L
				{
					OFFSET 40.9854 0.0 -1.26872e-05
					CHANNELS 6 Xposition Yposition Zposition Zrotation Xrotation Yrotation 
					JOINT Toes_L
					{
						OFFSET 11.7543 0.0 0.0
						CHANNELS 6 Xposition Yposition Zposition Zrotation Xrotation Yrotation 
						End Site
						{
							OFFSET 0.0 0.0 0.0
						}
					}
				}
			}
		}
		JOINT UpperLeg_R
		{
			OFFSET -2.19251 6.46944 0.0
			CHANNELS 6 Xposition Yposition Zposition Zrotation Xrotation Yrotation 
			JOINT LowerLeg_R
			{
				OFFSET -39.0811 -0.00228153 -0.0401928
				CHANNELS 6 Xposition Yposition Zposition Zrotation Xrotation Yrotation 
				JOINT Foot_R
				{
					OFFSET -40.9854 0.0 0.0
					CHANNELS 6 Xposition Yposition Zposition Zrotation Xrotation Yrotation 
					JOINT Toes_R
					{
						OFFSET -11.7543 0.0 0.0
						CHANNELS 6 Xposition Yposition Zposition Zrotation Xrotation Yrotation 
						End Site
						{
							OFFSET 0.0 0.0 0.0
						}
					}
				}
			}
		}
	}
}
MOTION
Frames:	7
Frame Time:	0.0333333
0.000000 0.000000 0.000000 0.000000 0.000000 -0.000000 -1.147750 92.254100 -0.630631 88.002900 0.992432 4.036310 15.735700 0.000005 -0.000001 88.668300 85.535600 -89.461900 8.984550 -0.406207 -0.000000 1.159720 -0.161685 -1.584080 16.377300 -0.000001 -0.000001 3.379490 -2.840940 2.014570 6.456720 -0.000001 -0.000000 3.436280 -3.389390 -4.854540 12.994200 -0.242716 4.980390 -89.999000 -0.003105 -71.994900 5.348090 -0.000007 -0.000001 -66.653500 37.142400 -14.428800 24.328600 0.000019 0.000005 0.867083 2.137900 -22.081500 22.291600 -0.000001 0.000005 5.033540 5.460960 -5.036030 12.994500 -0.242716 -4.980390 90.398100 -1.109420 -70.258800 -5.348130 -0.000001 -0.000004 -79.819100 -33.505400 -92.890200 -24.328900 0.000322 -0.000009 19.273600 6.019250 -73.307300 -22.291500 -0.000108 -0.000004 42.695500 5.242640 1.622640 -2.192480 -6.469440 -0.000000 -175.226000 -5.542770 -2.782090 39.081100 -0.000007 -0.000012 -0.109980 0.257756 23.107100 40.985400 -0.000006 -0.000013 -0.505470 3.488730 -66.561200 11.754300 -0.000000 0.000003 -0.000028 -0.000340 -16.590900 -2.192510 6.469440 -0.000001 -179.947000 16.710000 -178.971000 -39.081100 -0.002282 -0.040193 0.034039 -0.088076 19.225800 -40.985400 0.000008 0.000006 6.016070 5.467690 -66.978200 -11.754300 -0.000006 -0.000006 -0.005807 -0.069074 -19.384100
0.000000 0.000000 0.000000 0.000000 0.000000 -0.000000 -1.121490 92.257000 -0.581552 88.051600 1.166070 4.021040 15.735700 0.000005 -0.000001 88.726900 85.552000 -89.552000 8.984550 -0.406207 -0.000000 1.127200 -0.149779 -1.647370 16.377300 -0.000001 -0.000001 3.359530 -2.709770 1.883440 6.456720 -0.000001 -0.000000 3.494840 -3.211980 -4.930660 12.994200 -0.242716 4.980390 -90.008300 0.025389 -71.982500 5.348090 -0.000007 -0.000001 -66.559500 37.310800 -14.452700 24.328600 0.000019 0.000005 0.839101 2.049760 -22.267100 22.291600 -0.000001 0.000005 5.017090 5.462050 -5.075810 12.994500 -0.242716 -4.980390 90.456900 -1.271530 -70.234700 -5.348130 -0.000001 -0.000004 -85.132800 -32.822300 -94.945800 -24.328900 0.000322 -0.000009 16.847300 5.966670 -71.055200 -22.291500 -0.000108 -0.000004 42.928900 5.111780 4.840360 -2.192480 -6.469440 -0.000000 -175.298000 -5.437960 -2.741600 39.081100 -0.000007 -0.000012 -0.108645 0.255575 23.030400 40.985400 -0.000006 -0.000013 -0.478456 3.536880 -66.553300 11.754300 -0.000000 0.000003 -0.000026 -0.000322 -16.590100 -2.192510 6.469440 -0.000001 179.972000 16.814600 -178.942000 -39.081100 -0.002282 -0.040193 0.033364 -0.086129 19.228300 -40.985400 0.000008 0.000006 5.926070 5.420930 -66.972800 -11.754300 -0.000006 -0.000006 -0.005706 -0.068144 -19.346200
0.000000 0.000000 0.000000 0.000000 0.000000 -0.000000 -1.081420 92.251900 -0.525732 88.070400 1.141040 3.990640 15.735700 0.000005 -0.000001 88.627300 85.566200 -89.419800 8.984550 -0.406207 -0.000000 1.098350 -0.166254 -1.582070 16.377300 -0.000001 -0.000001 3.261900 -2.654060 1.755980 6.456720 -0.000001 -0.000000 3.501070 -3.104950 -5.023950 12.994200 -0.242716 4.980390 -90.031900 0.097754 -71.945800 5.348090 -0.000007 -0.000001 -66.671700 37.447900 -14.254100 24.328600 0.000019 0.000005 0.841281 2.058020 -22.238500 22.291600 -0.000001 0.000005 4.966070 5.462420 -5.089660 12.994500 -0.242716 -4.980390 90.442500 -1.232000 -70.239400 -5.348130 -0.000001 -0.000004 -85.892200 -32.765300 -95.139800 -24.328900 0.000322 -0.000009 14.751900 5.363640 -70.457100 -22.291500 -0.000108 -0.000004 43.910100 5.037170 6.517760 -2.192480 -6.469440 -0.000000 -175.341000 -5.465340 -2.729620 39.081100 -0.000007 -0.000012 -0.108650 0.255622 23.027700 40.985400 -0.000006 -0.000013 -0.451379 3.539290 -66.593000 11.754300 -0.000000 0.000003 -0.000025 -0.000307 -16.589600 -2.192510 6.469440 -0.000001 179.933000 16.792400 -178.950000 -39.081100 -0.002282 -0.040193 0.033453 -0.086286 19.248900 -40.985400 0.000008 0.000006 5.884830 5.415200 -67.006800 -11.754300 -0.000006 -0.000006 -0.006009 -0.070917 -19.459300
0.000000 0.000000 0.000000 0.000000 0.000000 -0.000000 -1.024190 92.245600 -0.473034 88.055600 0.919154 3.954130 15.735700 0.000005 -0.000001 88.373700 85.576000 -89.079600 8.984550 -0.406207 -0.000000 1.077490 -0.209820 -1.408660 16.377300 -0.000001 -0.000001 3.221480 -2.629350 1.637660 6.456720 -0.000001 -0.000000 3.361240 -3.001110 -5.098910 12.994200 -0.242716 4.980390 -90.031300 0.096068 -71.967100 5.348090 -0.000007 -0.000001 -67.165700 37.373700 -13.712100 24.328600 0.000019 0.000005 0.900733 2.219740 -22.092100 22.291600 -0.000001 0.000005 4.934320 5.459150 -4.969940 12.994500 -0.242716 -4.980390 90.364600 -1.011440 -70.175800 -5.348130 -0.000001 -0.000004 -82.288500 -33.122500 -93.504100 -24.328900 0.000322 -0.000009 15.120800 5.167300 -71.567800 -22.291500 -0.000108 -0.000004 44.332500 5.060050 6.014550 -2.192480 -6.469440 -0.000000 -175.363000 -5.607210 -2.693190 39.081100 -0.000007 -0.000012 -0.108175 0.254314 23.043000 40.985400 -0.000006 -0.000013 -0.428074 3.445670 -66.669200 11.754300 -0.000000 0.000003 -0.000025 -0.000307 -16.589500 -2.192510 6.469440 -0.000001 179.915000 16.618900 -178.961000 -39.081100 -0.002282 -0.040193 0.032611 -0.083940 19.234600 -40.985400 0.000008 0.000006 5.814060 5.500290 -67.032400 -11.754300 -0.000006 -0.000006 -0.005802 -0.069025 -19.382100
0.000000 0.000000 0.000000 0.000000 0.000000 -0.000000 -0.952465 92.234600 -0.398012 88.054900 0.496402 3.997590 15.735700 0.000005 -0.000001 88.064800 85.574900 -88.659400 8.984550 -0.406207 -0.000000 1.078020 -0.264044 -1.185690 16.377300 -0.000001 -0.000001 3.218130 -2.701610 1.702520 6.456720 -0.000001 -0.000000 3.313810 -2.995380 -5.232050 12.994200 -0.242716 4.980390 -90.011300 0.034653 -72.024300 5.348090 -0.000007 -0.000001 -67.772300 37.480300 -13.097100 24.328600 0.000019 0.000005 0.949692 2.401380 -21.584300 22.291600 -0.000001 0.000005 5.058400 5.460510 -5.019480 12.994500 -0.242716 -4.980390 90.302700 -0.836054 -70.096900 -5.348130 -0.000001 -0.000004 -74.811500 -33.678500 -90.118500 -24.328900 0.000322 -0.000009 16.841600 5.011630 -73.903700 -22.291500 -0.000108 -0.000004 44.410900 5.113870 4.793530 -2.192480 -6.469440 -0.000000 -175.379000 -5.908300 -2.538500 39.081100 -0.000007 -0.000012 -0.110407 0.259376 23.057800 40.985400 -0.000006 -0.000013 -0.409633 3.322380 -66.767700 11.754300 -0.000000 0.000003 -0.000029 -0.000353 -16.591400 -2.192510 6.469440 -0.000001 179.845000 16.293900 -178.898000 -39.081100 -0.002282 -0.040193 0.032161 -0.082457 19.276600 -40.985400 0.000008 0.000006 5.778000 5.617710 -67.094600 -11.754300 -0.000006 -0.000006 -0.005726 -0.068322 -19.353500
0.000000 0.000000 0.000000 0.000000 0.000000 -0.000000 -0.881612 92.233200 -0.352190 88.034500 -0.001829 3.959570 15.735700 0.000005 -0.000001 87.495600 85.601200 -87.974500 8.984550 -0.406207 -0.000000 1.021900 -0.356083 -0.953838 16.377300 -0.000001 -0.000001 3.237620 -2.878010 1.787140 6.456720 -0.000001 -0.000000 3.419960 -3.066690 -5.126430 12.994200 -0.242716 4.980390 -89.998300 -0.005392 -72.079100 5.348090 -0.000007 -0.000001 -68.299600 37.629800 -12.547200 24.328600 0.000019 0.000005 1.027020 2.689350 -20.909600 22.291600 -0.000001 0.000005 4.850780 5.456180 -4.862050 12.994500 -0.242716 -4.980390 90.216300 -0.595731 -70.041200 -5.348130 -0.000001 -0.000004 -64.702300 -34.019200 -85.676700 -24.328900 0.000322 -0.000009 18.406400 4.367870 -77.110100 -22.291500 -0.000108 -0.000004 43.811600 5.152910 3.872660 -2.192480 -6.469440 -0.000000 -175.410000 -6.116740 -2.448260 39.081100 -0.000007 -0.000012 -0.109726 0.258152 23.027700 40.985400 -0.000006 -0.000013 -0.422932 3.035250 -66.837800 11.754300 -0.000000 0.000003 -0.000027 -0.000326 -16.590300 -2.192510 6.469440 -0.000001 179.831000 15.973000 -178.950000 -39.081100 -0.002282 -0.040193 0.030736 -0.078324 19.290300 -40.985400 0.000008 0.000006 5.732630 5.791500 -67.088200 -11.754300 -0.000006 -0.000006 -0.005701 -0.068096 -19.344300
0.000000 0.000000 0.000000 0.000000 0.000000 -0.000000 -0.830878 92.222900 -0.293873 88.031900 -0.472993 4.011450 15.735700 0.000005 -0.000001 86.997100 85.599800 -87.375700 8.984550 -0.406207 -0.000000 1.021000 -0.438560 -0.752763 16.377300 -0.000001 -0.000001 3.309520 -3.093540 1.989850 6.456720 -0.000001 -0.000000 3.521190 -3.289260 -4.990320 12.994200 -0.242716 4.980390 -89.977100 -0.071195 -72.163800 5.348090 -0.000007 -0.000001 -68.827400 37.761200 -12.124900 24.328600 0.000019 0.000005 1.110850 3.031650 -20.134100 22.291600 -0.000001 0.000005 4.803250 5.451090 -4.678490 12.994500 -0.242716 -4.980390 90.145600 -0.400144 -69.998100 -5.348130 -0.000001 -0.000004 -53.595600 -34.009300 -80.884600 -24.328900 0.000322 -0.000009 20.545900 3.421390 -80.952300 -22.291500 -0.000108 -0.000004 42.006100 5.188020 3.016030 -2.192480 -6.469440 -0.000000 -175.424000 -6.441890 -2.272970 39.081100 -0.000007 -0.000012 -0.108380 0.254931 23.032100 40.985400 -0.000006 -0.000013 -0.417972 2.868930 -66.934700 11.754300 -0.000000 0.000003 -0.000024 -0.000292 -16.589000 -2.192510 6.469440 -0.000001 179.764000 15.653100 -178.908000 -39.081100 -0.002282 -0.040193 0.027739 -0.069541 19.346400 -40.985400 0.000008 0.000006 5.591510 5.985310 -67.112000 -11.754300 -0.000006 -0.000006 -0.005765 -0.068687 -19.368400
